<mxfile host="app.diagrams.net" modified="2022-05-20T15:51:13.497Z" agent="5.0 (Windows NT 10.0; Win64; x64) AppleWebKit/537.36 (KHTML, like Gecko) Chrome/101.0.4951.67 Safari/537.36" etag="BzC5fCpWpeSqVkxlDGap" version="18.0.7" type="github">
  <diagram name="Page-1" id="90a13364-a465-7bf4-72fc-28e22215d7a0">
    <mxGraphModel dx="920" dy="1504" grid="1" gridSize="10" guides="1" tooltips="1" connect="1" arrows="1" fold="1" page="1" pageScale="1.5" pageWidth="1169" pageHeight="826" background="none" math="0" shadow="0">
      <root>
        <mxCell id="0" style=";html=1;" />
        <mxCell id="1" style=";html=1;" parent="0" />
        <mxCell id="_GseaxLKm5lbex_g-DC_-1" value="PC" style="rounded=0;whiteSpace=wrap;html=1;fontSize=15;fontFamily=Verdana;fontStyle=1" vertex="1" parent="1">
          <mxGeometry x="60" y="510" width="40" height="100" as="geometry" />
        </mxCell>
        <mxCell id="_GseaxLKm5lbex_g-DC_-3" value="Registers" style="rounded=0;whiteSpace=wrap;html=1;fontFamily=Verdana;fontSize=15;" vertex="1" parent="1">
          <mxGeometry x="340" y="450" width="220" height="280" as="geometry" />
        </mxCell>
        <mxCell id="_GseaxLKm5lbex_g-DC_-5" value="Read&lt;br&gt;register1" style="text;html=1;strokeColor=none;fillColor=none;align=center;verticalAlign=middle;whiteSpace=wrap;rounded=0;fontFamily=Verdana;fontSize=15;" vertex="1" parent="1">
          <mxGeometry x="340" y="450" width="90" height="50" as="geometry" />
        </mxCell>
        <mxCell id="_GseaxLKm5lbex_g-DC_-7" value="Read&lt;br&gt;register2" style="text;html=1;strokeColor=none;fillColor=none;align=center;verticalAlign=middle;whiteSpace=wrap;rounded=0;fontFamily=Verdana;fontSize=15;" vertex="1" parent="1">
          <mxGeometry x="340" y="510" width="90" height="50" as="geometry" />
        </mxCell>
        <mxCell id="_GseaxLKm5lbex_g-DC_-8" value="Write&lt;br&gt;register" style="text;html=1;strokeColor=none;fillColor=none;align=center;verticalAlign=middle;whiteSpace=wrap;rounded=0;fontFamily=Verdana;fontSize=15;" vertex="1" parent="1">
          <mxGeometry x="340" y="630" width="90" height="50" as="geometry" />
        </mxCell>
        <mxCell id="_GseaxLKm5lbex_g-DC_-9" value="Write&lt;br&gt;data" style="text;html=1;strokeColor=none;fillColor=none;align=center;verticalAlign=middle;whiteSpace=wrap;rounded=0;fontFamily=Verdana;fontSize=15;" vertex="1" parent="1">
          <mxGeometry x="340" y="680" width="90" height="50" as="geometry" />
        </mxCell>
        <mxCell id="_GseaxLKm5lbex_g-DC_-10" value="Read&lt;br&gt;data 1" style="text;html=1;strokeColor=none;fillColor=none;align=center;verticalAlign=middle;whiteSpace=wrap;rounded=0;fontFamily=Verdana;fontSize=15;" vertex="1" parent="1">
          <mxGeometry x="470" y="510" width="90" height="50" as="geometry" />
        </mxCell>
        <mxCell id="_GseaxLKm5lbex_g-DC_-11" value="Read&lt;br&gt;data 2" style="text;html=1;strokeColor=none;fillColor=none;align=center;verticalAlign=middle;whiteSpace=wrap;rounded=0;fontFamily=Verdana;fontSize=15;" vertex="1" parent="1">
          <mxGeometry x="470" y="640" width="90" height="50" as="geometry" />
        </mxCell>
        <mxCell id="_GseaxLKm5lbex_g-DC_-16" style="edgeStyle=orthogonalEdgeStyle;rounded=0;orthogonalLoop=1;jettySize=auto;html=1;entryX=0;entryY=0.5;entryDx=0;entryDy=0;fontFamily=Verdana;fontSize=15;exitX=1;exitY=0.5;exitDx=0;exitDy=0;" edge="1" parent="1" source="_GseaxLKm5lbex_g-DC_-1" target="_GseaxLKm5lbex_g-DC_-15">
          <mxGeometry relative="1" as="geometry">
            <mxPoint x="110" y="560" as="sourcePoint" />
          </mxGeometry>
        </mxCell>
        <mxCell id="_GseaxLKm5lbex_g-DC_-15" value="Instruction&lt;br&gt;memory" style="rounded=0;whiteSpace=wrap;html=1;fontFamily=Verdana;fontSize=15;" vertex="1" parent="1">
          <mxGeometry x="120" y="530" width="90" height="60" as="geometry" />
        </mxCell>
        <mxCell id="_GseaxLKm5lbex_g-DC_-18" value="" style="endArrow=classic;html=1;rounded=0;fontFamily=Verdana;fontSize=15;" edge="1" parent="1">
          <mxGeometry width="50" height="50" relative="1" as="geometry">
            <mxPoint x="110" y="560" as="sourcePoint" />
            <mxPoint x="170" y="360" as="targetPoint" />
            <Array as="points">
              <mxPoint x="110" y="360" />
            </Array>
          </mxGeometry>
        </mxCell>
        <mxCell id="_GseaxLKm5lbex_g-DC_-28" value="add&lt;br&gt;" style="shape=trapezoid;perimeter=trapezoidPerimeter;whiteSpace=wrap;html=1;fixedSize=1;rounded=0;fontFamily=Verdana;fontSize=15;strokeColor=default;fillColor=none;size=30;rotation=0;verticalAlign=middle;labelPosition=center;verticalLabelPosition=middle;align=center;direction=south;" vertex="1" parent="1">
          <mxGeometry x="170" y="320" width="50" height="110" as="geometry" />
        </mxCell>
        <mxCell id="_GseaxLKm5lbex_g-DC_-29" value="4" style="endArrow=classic;html=1;rounded=0;fontFamily=Verdana;fontSize=15;align=right;" edge="1" parent="1">
          <mxGeometry width="50" height="50" relative="1" as="geometry">
            <mxPoint x="130" y="400" as="sourcePoint" />
            <mxPoint x="170" y="400" as="targetPoint" />
            <Array as="points" />
          </mxGeometry>
        </mxCell>
        <mxCell id="_GseaxLKm5lbex_g-DC_-31" value="" style="endArrow=classic;html=1;rounded=0;fontFamily=Verdana;fontSize=15;" edge="1" parent="1">
          <mxGeometry width="50" height="50" relative="1" as="geometry">
            <mxPoint x="260" y="480" as="sourcePoint" />
            <mxPoint x="340" y="480" as="targetPoint" />
          </mxGeometry>
        </mxCell>
        <mxCell id="_GseaxLKm5lbex_g-DC_-32" value="" style="endArrow=classic;html=1;rounded=0;fontFamily=Verdana;fontSize=15;" edge="1" parent="1">
          <mxGeometry width="50" height="50" relative="1" as="geometry">
            <mxPoint x="260" y="516" as="sourcePoint" />
            <mxPoint x="340" y="516" as="targetPoint" />
          </mxGeometry>
        </mxCell>
        <mxCell id="_GseaxLKm5lbex_g-DC_-33" value="" style="endArrow=classic;html=1;rounded=0;fontFamily=Verdana;fontSize=15;startArrow=none;exitX=0.5;exitY=0;exitDx=0;exitDy=0;entryX=0;entryY=0.5;entryDx=0;entryDy=0;" edge="1" parent="1" source="_GseaxLKm5lbex_g-DC_-38" target="_GseaxLKm5lbex_g-DC_-8">
          <mxGeometry width="50" height="50" relative="1" as="geometry">
            <mxPoint x="280" y="656" as="sourcePoint" />
            <mxPoint x="340" y="650" as="targetPoint" />
          </mxGeometry>
        </mxCell>
        <mxCell id="_GseaxLKm5lbex_g-DC_-34" value="" style="endArrow=classic;html=1;rounded=0;fontFamily=Verdana;fontSize=15;" edge="1" parent="1">
          <mxGeometry width="50" height="50" relative="1" as="geometry">
            <mxPoint x="300" y="706" as="sourcePoint" />
            <mxPoint x="340" y="706" as="targetPoint" />
          </mxGeometry>
        </mxCell>
        <mxCell id="_GseaxLKm5lbex_g-DC_-36" value="" style="endArrow=classic;html=1;rounded=0;fontFamily=Verdana;fontSize=15;" edge="1" parent="1">
          <mxGeometry width="50" height="50" relative="1" as="geometry">
            <mxPoint x="220" y="376" as="sourcePoint" />
            <mxPoint x="260" y="376" as="targetPoint" />
          </mxGeometry>
        </mxCell>
        <mxCell id="_GseaxLKm5lbex_g-DC_-37" value="" style="endArrow=classic;html=1;rounded=0;fontFamily=Verdana;fontSize=15;entryX=0.289;entryY=1.027;entryDx=0;entryDy=0;entryPerimeter=0;" edge="1" parent="1" target="_GseaxLKm5lbex_g-DC_-38">
          <mxGeometry width="50" height="50" relative="1" as="geometry">
            <mxPoint x="320" y="517" as="sourcePoint" />
            <mxPoint x="305" y="617" as="targetPoint" />
            <Array as="points">
              <mxPoint x="320" y="590" />
              <mxPoint x="270" y="590" />
              <mxPoint x="270" y="640" />
            </Array>
          </mxGeometry>
        </mxCell>
        <mxCell id="_GseaxLKm5lbex_g-DC_-38" value="M&lt;br&gt;U&lt;br&gt;X" style="rounded=1;whiteSpace=wrap;html=1;fontFamily=Verdana;fontSize=15;strokeColor=default;fillColor=none;arcSize=50;direction=south;" vertex="1" parent="1">
          <mxGeometry x="290" y="620" width="30" height="70" as="geometry" />
        </mxCell>
        <mxCell id="_GseaxLKm5lbex_g-DC_-40" value="" style="endArrow=classic;html=1;rounded=0;fontFamily=Verdana;fontSize=15;startArrow=none;entryX=0;entryY=0.5;entryDx=0;entryDy=0;" edge="1" parent="1">
          <mxGeometry width="50" height="50" relative="1" as="geometry">
            <mxPoint x="260" y="670" as="sourcePoint" />
            <mxPoint x="290" y="669.89" as="targetPoint" />
          </mxGeometry>
        </mxCell>
        <mxCell id="_GseaxLKm5lbex_g-DC_-41" value="" style="endArrow=classic;html=1;rounded=0;fontFamily=Verdana;fontSize=15;" edge="1" parent="1">
          <mxGeometry width="50" height="50" relative="1" as="geometry">
            <mxPoint x="260" y="670" as="sourcePoint" />
            <mxPoint x="320" y="400" as="targetPoint" />
            <Array as="points">
              <mxPoint x="260" y="400" />
            </Array>
          </mxGeometry>
        </mxCell>
      </root>
    </mxGraphModel>
  </diagram>
</mxfile>
